<svg version="1.0" xmlns="http://www.w3.org/2000/svg"
 width="166.000000pt" height="158.000000pt" viewBox="0 0 166.000000 158.000000"
 preserveAspectRatio="xMidYMid meet">
<g transform="translate(0.000000,158.000000) scale(0.100000,-0.100000)"
fill="#88b04b" stroke="none">
<path d="M0 790 l0 -790 830 0 830 0 0 790 0 790 -830 0 -830 0 0 -790z m370
409 c129 -34 290 -75 358 -91 l122 -30 0 -78 0 -77 -132 33 c-73 18 -244 61
-380 95 l-248 62 0 80 c0 78 1 79 23 73 12 -4 128 -34 257 -67z m1190 -194 l0
-75 -330 0 -330 0 0 68 c0 38 3 72 7 75 3 4 152 7 330 7 l323 0 0 -75z m-1273
-6 c87 -22 226 -58 308 -79 83 -20 176 -45 208 -55 l59 -17 -4 -222 -3 -222
-32 -65 c-18 -36 -42 -74 -53 -84 -20 -18 -21 -18 -80 40 l-59 58 25 42 c23
39 24 51 24 193 l0 150 -32 11 c-18 6 -89 24 -158 41 -69 16 -174 43 -235 59
-60 16 -122 31 -137 35 -25 6 -27 9 -30 81 -4 92 -16 90 199 34z m1271 -221
l-3 -73 -242 -3 -243 -2 0 -275 0 -275 -85 0 -85 0 0 350 0 350 330 0 331 0
-3 -72z m-1111 -438 c14 -11 39 -20 54 -20 l29 0 0 -85 0 -85 -33 0 c-53 0
-123 25 -167 60 l-42 33 58 58 c32 33 62 59 67 59 5 0 20 -9 34 -20z"/>
</g>
</svg>